<?xml version="1.0" encoding="UTF-8" standalone="no"?>
<!-- Created with Inkscape (http://www.inkscape.org/) -->

<svg
   width="180"
   height="180"
   viewBox="0 0 180 180"
   version="1.1"
   id="svg1"
   inkscape:version="1.3 (0e150ed6c4, 2023-07-21)"
   sodipodi:docname="OneDayHero_logo_sm.svg"
   xmlns:inkscape="http://www.inkscape.org/namespaces/inkscape"
   xmlns:sodipodi="http://sodipodi.sourceforge.net/DTD/sodipodi-0.dtd"
   xmlns="http://www.w3.org/2000/svg"
   xmlns:svg="http://www.w3.org/2000/svg">
  <sodipodi:namedview
     id="namedview1"
     pagecolor="#ffffff"
     bordercolor="#000000"
     borderopacity="0.25"
     inkscape:showpageshadow="2"
     inkscape:pageopacity="0.0"
     inkscape:pagecheckerboard="0"
     inkscape:deskcolor="#d1d1d1"
     inkscape:document-units="px"
     inkscape:zoom="2.8343197"
     inkscape:cx="-1.058455"
     inkscape:cy="97.201455"
     inkscape:window-width="2880"
     inkscape:window-height="1720"
     inkscape:window-x="-11"
     inkscape:window-y="35"
     inkscape:window-maximized="1"
     inkscape:current-layer="layer1" />
  <defs
     id="defs1" />
  <g
     inkscape:label="Layer 1"
     inkscape:groupmode="layer"
     id="layer1">
    <path
       style="fill:#251a1a;fill-opacity:1"
       d="m 86.352291,79.472334 c -6.615344,1.852296 -6.262525,0.793841 -7.409185,4.145615 -1.14666,3.351775 -3.26357,8.996868 1.058455,10.143528 4.322025,1.146659 12.260438,3.528183 14.377348,-1.323069 2.11691,-4.851252 2.469728,-7.673799 -0.176409,-11.025573 -2.646138,-3.351775 -5.38048,-3.792798 -6.879958,-3.616388 -1.499478,0.176409 -0.970251,1.675887 -0.970251,1.675887 z"
       id="path1" />
    <path
       style="fill:#e7b777;fill-opacity:1"
       d="m 103.59546,69.576873 c 0,0 5.62447,-2.0261 8.23285,-5.625841 4.93703,-6.813438 7.47012,-11.081528 6.66917,-23.934527 -1.41067,-22.637336 -11.15045,-19.655308 -20.743394,-3.544837 -4.829001,8.109869 -7.250063,14.141034 -9.127434,25.371318 0,0 -11.891593,-1.775528 -20.58212,1.122661 -9.960822,3.321818 -14.720407,8.665209 -21.580041,21.704782 -1.800591,3.42277 -2.994918,9.874195 -2.989097,13.268213 5.03e-4,0.29326 2.242535,0.67656 4.434133,1.5816 2.171878,0.896898 2.570533,1.031438 4.76873,-0.29886 1.867531,-1.13018 3.850947,-2.39036 5.598656,-1.979814 1.296538,0.304564 1.459988,1.745114 -0.388562,2.990812 -1.183227,0.79735 -2.588843,1.29792 -4.15984,2.3022 -1.358126,0.8682 -1.58511,1.34598 -1.034056,4.24623 0.422506,2.22369 1.177073,2.67808 3.966255,3.48084 2.065056,0.59434 3.609571,0.35731 4.874201,-0.28686 1.708473,-0.87026 2.68592,-0.41282 3.421774,0.33943 0.861985,0.88118 -3.72073,3.27201 -6.109277,3.11405 -2.056127,-0.13598 -6.977655,-1.25908 -8.110336,-3.27355 -0.899025,-1.59891 -1.063912,-4.04242 -1.395955,-5.70922 -0.185448,-0.93092 -0.819887,-1.40511 -1.459607,-1.71747 -1.56873,-0.766 -4.294742,-1.12195 -4.284758,-1.04055 0.904946,7.37902 6.147552,13.71662 16.09019,15.29064 26.709259,4.22835 43.532188,1.01383 48.773388,-14.22038 1.6695,-4.852618 2.45707,-11.201697 0.81162,-18.858509 -1.19438,-5.557863 -13.707025,-0.314694 -14.326806,4.735916 -0.389293,3.172347 -3.132644,5.281188 -9.917454,4.100661 -3.079925,-0.535893 -4.474338,-2.723993 -3.581366,-6.541087 1.09153,-4.66585 4.128848,-6.473194 8.827564,-5.677783 4.026753,0.68166 4.85769,4.444414 4.852205,7.157448 -0.01381,6.828882 14.399737,-2.540899 14.128627,-3.89388 -1.6322,-8.145413 -5.65926,-14.203633 -5.65926,-14.203633 z"
       id="path2"
       sodipodi:nodetypes="cssscssssssssssssssssssssssssssc" />
    <path
       style="fill:#e7b777;fill-opacity:1;stroke-width:0.944379"
       d="M 85.398543,58.036426 C 86.454402,49.9417 86.94924,41.97421 84.546764,33.455562 79.316087,14.90874 74.237924,15.338041 67.883258,27.536431 c -4.486946,8.613121 -3.950476,16.923753 -0.961386,23.542493 2.57865,5.709905 6.031628,7.154165 6.031628,7.154165 0,0 3.700475,-0.419162 7.052249,-0.458494"
       id="path3"
       sodipodi:nodetypes="cssscc" />
    <path
       style="fill:#ff7d41;fill-opacity:1"
       d="m 76.15264,123.58934 c 0,0 9.564143,0.10987 14.59459,-0.99793 16.74667,-3.68793 22.05509,-11.23645 24.32433,-22.07899 1.16477,-5.565323 0.9136,-10.491743 -0.74845,-16.964652 0,0 46.82682,6.914088 46.02911,7.484407 -8.43132,6.02794 -10.6246,9.785115 -8.85655,21.455295 1.61147,10.63665 -2.5742,17.52941 -12.59875,19.70894 -11.27717,2.45187 -12.37082,7.44563 -14.09564,17.21414 -1.51194,8.56286 -9.80773,11.12509 -19.08524,9.60498 -13.496521,-2.21139 -14.798661,3.19791 -19.334709,8.85655 z"
       id="path4"
       sodipodi:nodetypes="csscssssscc" />
    <path
       style="fill:#554a3c;fill-opacity:1;stroke-width:1.20584"
       d="m 87.6409,83.660469 c 1.127913,0.23507 2.238994,0.96185 2.528404,2.369512 0.272581,1.325799 -0.359811,2.569638 -1.344096,3.037113 -1.026275,0.487416 -2.84798,0.329098 -3.656318,-0.648795 -0.838233,-1.014061 -0.756735,-2.019136 -0.206784,-3.187558 0.820622,-1.743496 2.678794,-1.570272 2.678794,-1.570272 z"
       id="path5"
       sodipodi:nodetypes="cssssc" />
    <path
       style="fill:#ffffff;fill-opacity:1;stroke-width:1.23826"
       d="m 87.110223,82.666472 c 0,0 -2.465153,-0.0027 -3.04344,2.584795 -0.18494,1.39689 1.381069,1.720736 1.70666,0.05775 0.115735,-0.591112 0.295406,-1.23718 0.904845,-1.540897 0.91525,-0.45612 1.555289,-1.134078 0.431929,-1.101655 -1.816559,0.106271 6e-6,0 6e-6,0 z"
       id="path6"
       sodipodi:nodetypes="ccsscc" />
  </g>
</svg>
